<?xml version="1.0" standalone="no"?>
<!DOCTYPE svg PUBLIC "-//W3C//DTD SVG 20010904//EN"
 "http://www.w3.org/TR/2001/REC-SVG-20010904/DTD/svg10.dtd">
<svg version="1.0" xmlns="http://www.w3.org/2000/svg"
 width="318.000000pt" height="200.000000pt" viewBox="0 0 318.000000 200.000000"
 preserveAspectRatio="xMidYMid meet">
<metadata>
Created by potrace 1.16, written by Peter Selinger 2001-2019
</metadata>
<g transform="translate(0.000000,200.000000) scale(0.100000,-0.100000)"
fill="#000000" stroke="none">
<path d="M0 1000 l0 -1000 1590 0 1590 0 0 1000 0 1000 -1590 0 -1590 0 0
-1000z m1090 943 c139 -33 312 -137 394 -236 l34 -41 85 62 c47 34 89 62 92
62 4 0 5 -44 1 -97 -22 -345 -38 -568 -40 -571 -5 -5 -606 203 -606 210 0 4
38 33 85 65 46 32 84 60 85 63 1 15 -136 92 -203 115 -105 35 -202 42 -302 21
-246 -51 -424 -228 -479 -478 l-6 -28 57 0 c70 0 120 -24 145 -68 16 -29 16
-36 2 -81 -9 -31 -25 -57 -42 -70 -20 -16 -22 -20 -7 -15 16 5 17 4 5 -5 -8
-5 -25 -8 -38 -4 -23 6 -24 5 -20 -71 2 -54 -1 -77 -9 -81 -23 -8 -172 0 -182
10 -30 30 -19 569 14 690 94 347 428 589 785 569 47 -3 114 -12 150 -21z
m1568 -832 c40 -21 72 -54 72 -74 0 -7 4 -17 10 -23 5 -5 11 -50 13 -99 2 -50
1 -82 -1 -71 -3 14 -9 8 -23 -24 -10 -23 -16 -46 -13 -51 3 -5 0 -9 -6 -9 -6
0 -8 -5 -4 -12 5 -7 0 -9 -14 -6 -16 4 -19 2 -15 -10 5 -13 0 -14 -28 -9 -24
5 -30 4 -19 -3 22 -14 -68 -13 -111 1 -96 33 -133 99 -128 228 4 88 19 118 79
159 43 29 134 31 188 3z m335 -60 l69 -66 -4 70 c-3 70 -3 70 25 73 l27 3 0
-100 c0 -56 4 -103 10 -106 6 -3 10 -15 10 -26 0 -11 -4 -18 -9 -15 -5 4 -8
-2 -6 -11 2 -10 4 -31 5 -48 2 -30 2 -30 10 -5 7 21 8 18 9 -18 1 -24 -3 -41
-8 -38 -5 3 -11 -1 -15 -9 -3 -8 -1 -15 5 -15 6 0 8 -4 5 -8 -2 -4 -26 -7 -53
-5 -26 1 -54 2 -61 2 -8 1 -45 31 -83 68 -38 36 -69 64 -70 62 -7 -46 -8 -120
-1 -115 5 3 9 -2 9 -10 0 -11 -7 -13 -31 -8 -17 3 -34 8 -38 11 -5 2 -8 89 -8
193 l0 189 53 3 c28 2 59 1 67 -1 8 -2 46 -34 83 -70z m-1125 11 c2 -23 7 -40
13 -37 5 4 9 -11 9 -33 0 -31 4 -41 20 -45 17 -4 20 0 20 33 l0 37 92 36 c51
19 96 33 100 30 5 -2 8 -33 8 -68 0 -61 1 -64 26 -67 17 -2 30 -11 35 -25 7
-20 5 -21 -27 -16 l-34 6 0 -57 c0 -41 3 -55 12 -50 8 5 9 2 5 -10 -5 -12 0
-19 17 -26 44 -16 40 -59 -4 -45 -11 4 -20 2 -20 -4 0 -17 -126 -13 -161 4
-37 20 -49 50 -49 126 0 52 -2 59 -20 59 -20 0 -26 13 -33 75 -2 17 -5 -4 -5
-45 -1 -49 2 -70 7 -61 12 18 18 -41 12 -114 -3 -41 -6 -45 -12 -25 -7 25 -7
25 -8 2 -1 -13 -5 -20 -11 -17 -5 3 -10 2 -10 -3 0 -6 -11 -13 -24 -16 -34 -8
-40 -48 -22 -135 20 -94 57 -161 128 -226 162 -150 419 -135 571 33 20 23 37
46 37 51 0 5 -26 17 -57 27 -32 9 -62 20 -66 24 -4 4 69 64 163 135 94 70 173
126 175 124 7 -8 166 -412 163 -415 -2 -2 -34 6 -71 18 -38 11 -69 19 -70 17
-1 -2 -12 -24 -25 -49 -61 -122 -170 -217 -299 -262 -100 -34 -251 -32 -346 5
-162 63 -274 185 -322 351 -13 45 -16 83 -12 160 3 55 8 110 12 122 6 19 2 22
-39 26 -77 9 -76 7 -76 208 0 97 3 180 7 184 4 4 48 5 98 4 l90 -3 3 -43z
m1259 -79 c-2 -21 -4 -4 -4 37 0 41 2 58 4 38 2 -21 2 -55 0 -75z m-2007 3 c9
-4 21 -15 28 -26 12 -19 10 -20 -13 -14 -14 3 -25 2 -24 -2 4 -21 -2 -28 -11
-14 -7 10 -8 1 -4 -30 6 -42 -9 -156 -22 -169 -3 -3 -10 1 -15 9 -9 13 -10 13
-6 -1 8 -25 -12 -39 -47 -33 -24 4 -28 3 -16 -5 24 -17 -58 -14 -131 5 -35 9
-65 12 -66 8 -3 -10 -223 -9 -260 1 -57 14 -82 89 -45 134 9 12 33 27 53 34
32 11 35 15 28 35 -5 12 -13 22 -19 22 -6 0 -9 -3 -7 -7 3 -5 -8 -8 -23 -9
-42 -2 -44 20 -4 39 89 43 215 27 245 -31 8 -15 17 -29 21 -32 4 -3 9 -38 10
-78 3 -65 5 -72 24 -72 34 0 51 30 63 115 12 83 33 119 75 129 26 6 145 0 166
-8z m360 -14 c26 -28 26 -30 -12 -28 l-33 1 3 -52 c3 -41 0 -54 -12 -59 -17
-7 -22 -49 -6 -59 14 -8 0 -37 -16 -31 -9 3 -11 0 -7 -11 5 -12 2 -15 -10 -10
-11 4 -17 1 -17 -7 0 -11 -20 -13 -93 -11 -94 3 -142 16 -134 38 2 7 13 13 25
15 29 4 38 24 46 97 11 92 16 105 50 127 26 16 44 19 114 15 68 -3 86 -7 102
-25z m667 6 c-3 -8 -6 -5 -6 6 -1 11 2 17 5 13 3 -3 4 -12 1 -19z m-1697 -55
c-11 -17 -11 -17 -6 0 3 10 6 24 7 30 0 9 2 9 5 0 3 -7 0 -20 -6 -30z m1697
-70 c-3 -10 -5 -2 -5 17 0 19 2 27 5 18 2 -10 2 -26 0 -35z"/>
<path d="M130 956 c0 -58 3 -107 8 -109 4 -3 7 27 6 66 -1 40 4 75 9 79 7 4 6
12 -4 24 -11 13 -11 18 -1 21 17 6 15 23 -3 23 -12 0 -15 -18 -15 -104z"/>
<path d="M330 970 c0 -89 12 -102 49 -54 28 36 27 79 -4 109 -39 40 -45 32
-45 -55z"/>
<path d="M137 810 c5 -17 14 -20 64 -20 37 0 59 4 59 11 0 6 7 8 16 5 8 -3 12
-2 9 4 -3 6 -33 10 -66 10 -38 0 -58 -4 -54 -10 3 -5 1 -10 -4 -10 -6 0 -11 7
-11 15 0 8 -4 15 -9 15 -5 0 -7 -9 -4 -20z"/>
<path d="M140 745 c0 -14 4 -25 9 -25 4 0 6 11 3 25 -2 14 -6 25 -8 25 -2 0
-4 -11 -4 -25z"/>
<path d="M210 752 c0 -13 49 -22 56 -11 3 5 -1 9 -10 9 -8 0 -21 3 -30 6 -9 3
-16 2 -16 -4z"/>
<path d="M2646 1039 c9 -16 -18 -31 -28 -16 -4 7 -5 -3 -2 -21 5 -25 3 -32 -7
-30 -10 2 -15 -9 -16 -37 -1 -33 0 -36 7 -15 6 20 8 13 9 -30 1 -58 13 -80 41
-80 30 0 53 38 58 94 6 69 -11 120 -44 135 -18 8 -23 8 -18 0z"/>
<path d="M2810 1095 c-10 -12 -10 -15 1 -15 12 0 12 -2 0 -9 -9 -6 -10 -11 -2
-15 6 -4 11 -2 11 5 0 8 4 8 15 -1 13 -10 15 -9 15 8 0 15 -5 20 -15 16 -8 -4
-15 -2 -15 4 0 6 6 13 13 15 7 4 8 6 1 6 -6 1 -17 -6 -24 -14z"/>
<path d="M2891 1010 c-24 -22 -49 -37 -54 -33 -5 3 -4 -4 2 -15 6 -12 15 -23
19 -26 5 -3 35 20 68 51 32 30 53 52 46 48 -7 -4 -18 -2 -25 3 -9 7 -25 -1
-56 -28z"/>
<path d="M2816 942 c-3 -5 1 -15 9 -22 21 -17 27 -9 10 13 -7 10 -16 14 -19 9z"/>
<path d="M1683 973 c4 -58 7 -137 7 -175 0 -51 3 -69 13 -65 6 2 12 10 12 18
0 8 5 17 10 21 6 4 2 8 -7 8 -10 0 -18 7 -18 15 0 12 15 15 75 15 69 0 75 2
75 21 0 19 -5 20 -75 17 l-75 -3 0 73 0 72 80 0 c50 0 80 4 80 11 0 5 -4 7
-10 4 -5 -3 -10 -1 -10 5 0 10 -21 9 -115 -5 -23 -4 -26 -2 -15 5 13 9 12 12
-4 25 -17 13 -17 15 -3 21 20 7 13 24 -10 24 -14 0 -15 -13 -10 -107z"/>
<path d="M1718 963 c6 -2 18 -2 25 0 6 3 1 5 -13 5 -14 0 -19 -2 -12 -5z"/>
<path d="M1775 880 c-3 -5 -1 -10 4 -10 6 0 11 5 11 10 0 6 -2 10 -4 10 -3 0
-8 -4 -11 -10z"/>
<path d="M1800 879 c0 -5 5 -7 10 -4 6 3 10 8 10 11 0 2 -4 4 -10 4 -5 0 -10
-5 -10 -11z"/>
<path d="M1736 765 c-4 -12 5 -15 54 -15 51 0 60 3 60 18 0 11 -3 13 -8 5 -5
-8 -13 -9 -22 -3 -24 15 -77 12 -84 -5z"/>
<path d="M522 838 c-20 -20 -14 -65 10 -82 45 -32 57 -14 42 63 -7 33 -30 41
-52 19z"/>
<path d="M1072 785 c0 -16 2 -22 5 -12 2 9 2 23 0 30 -3 6 -5 -1 -5 -18z"/>
</g>
</svg>
